<?xml version="1.0" encoding="UTF-8"?>
<svg version="1.1" xmlns="http://www.w3.org/2000/svg" width="512" height="512">
<path d="M0 0 C1.11109131 0.24943359 1.11109131 0.24943359 2.24462891 0.50390625 C14.13257954 3.25964497 25.05217808 7.65724201 36 13 C37.01707031 13.49371094 38.03414062 13.98742187 39.08203125 14.49609375 C50.42262193 20.35733608 60.75277179 28.24204313 70 37 C68.70722863 39.84731326 67.35425174 41.88961912 65.13012695 44.08105469 C64.5522493 44.65555359 63.97437164 45.23005249 63.37898254 45.82196045 C62.75505112 46.43243225 62.13111969 47.04290405 61.48828125 47.671875 C60.84183151 48.31312317 60.19538177 48.95437134 59.52934265 49.61505127 C57.46175974 51.66484762 55.38763776 53.70785445 53.3125 55.75 C51.25603754 57.77866262 49.20111681 59.8088256 47.1492157 61.84210205 C45.87423441 63.10502666 44.59659246 64.3652734 43.31575012 65.62225342 C38.18881561 70.69278396 33.49168139 76.08117323 28.8125 81.5625 C27 83 27 83 25.18359375 82.8125 C22.42272738 81.78520089 20.55852116 80.26926135 18.25 78.4375 C-0.97654306 64.17760055 -23.71944918 58.55858849 -47.47705078 61.28417969 C-70.77020797 64.91112506 -92.34529155 77.16336332 -106.75 95.9375 C-108.18636879 97.9443773 -109.60446856 99.96451387 -111 102 C-111.55558594 102.80050781 -112.11117187 103.60101563 -112.68359375 104.42578125 C-125.64518529 124.45733181 -129.20612577 150.05687634 -124.91943359 173.28344727 C-119.69249865 197.32364098 -105.38268906 219.06676373 -84.79296875 232.6796875 C-62.62192763 246.59388709 -37.13568503 251.03194902 -11.375 245.4375 C1.1290446 242.37207458 12.96716398 237.11856407 23 229 C23.82886719 228.35675781 24.65773438 227.71351563 25.51171875 227.05078125 C36.43838831 217.99821121 42.58874061 206.32235768 47 193 C47.99 190.03 47.99 190.03 49 187 C21.28 187 -6.44 187 -35 187 C-35 166.87 -35 146.74 -35 126 C13.84 126 62.68 126 113 126 C123.14793759 161.51778155 114.66012861 206.36510393 97.24072266 238.48608398 C91.12342049 249.3283066 83.60046367 259.01627146 75 268 C74.32839844 268.73476563 73.65679687 269.46953125 72.96484375 270.2265625 C52.49907394 291.87819934 24.66502169 303.23363654 -4 309 C-5.19109375 309.2475 -6.3821875 309.495 -7.609375 309.75 C-27.48458951 313.10919119 -49.33422358 312.31729602 -69 308 C-69.74040527 307.83902832 -70.48081055 307.67805664 -71.24365234 307.51220703 C-95.46925918 302.00710842 -118.43186273 290.51492978 -137 274 C-137.825 273.29488281 -138.65 272.58976562 -139.5 271.86328125 C-170.23772145 245.11185805 -188.92667634 206.56343433 -192 166 C-193.34469936 137.25089774 -188.69531692 109.93172354 -176 84 C-175.70399902 83.37963867 -175.40799805 82.75927734 -175.10302734 82.12011719 C-162.61174476 56.16578287 -142.00234954 35.46214348 -118 20 C-117.41734375 19.62456055 -116.8346875 19.24912109 -116.234375 18.86230469 C-100.25654241 8.75483232 -82.42375785 2.790146 -64 -1 C-62.25009766 -1.36931641 -62.25009766 -1.36931641 -60.46484375 -1.74609375 C-40.91757334 -5.06112791 -19.31625725 -4.44716007 0 0 Z " fill="#34A352" transform="translate(294,102)"/>
<path d="M0 0 C1.11109131 0.24943359 1.11109131 0.24943359 2.24462891 0.50390625 C14.13257954 3.25964497 25.05217808 7.65724201 36 13 C37.01707031 13.49371094 38.03414062 13.98742187 39.08203125 14.49609375 C50.42262193 20.35733608 60.75277179 28.24204313 70 37 C68.70722863 39.84731326 67.35425174 41.88961912 65.13012695 44.08105469 C64.5522493 44.65555359 63.97437164 45.23005249 63.37898254 45.82196045 C62.75505112 46.43243225 62.13111969 47.04290405 61.48828125 47.671875 C60.84183151 48.31312317 60.19538177 48.95437134 59.52934265 49.61505127 C57.46175974 51.66484762 55.38763776 53.70785445 53.3125 55.75 C51.25603754 57.77866262 49.20111681 59.8088256 47.1492157 61.84210205 C45.87423441 63.10502666 44.59659246 64.3652734 43.31575012 65.62225342 C38.18881561 70.69278396 33.49168139 76.08117323 28.8125 81.5625 C27 83 27 83 25.18359375 82.8125 C22.42272738 81.78520089 20.55852116 80.26926135 18.25 78.4375 C-0.97654306 64.17760055 -23.71944918 58.55858849 -47.47705078 61.28417969 C-70.77020797 64.91112506 -92.34529155 77.16336332 -106.75 95.9375 C-108.18636879 97.9443773 -109.60446856 99.96451387 -111 102 C-111.55558594 102.80050781 -112.11117187 103.60101563 -112.68359375 104.42578125 C-124.99887817 123.45849354 -129.23328906 148.27098895 -125.3203125 170.48046875 C-124.81525381 172.76285302 -124.26915145 175.03715092 -123.65625 177.29296875 C-122.47554441 182.16337932 -122.47554441 182.16337932 -123 185 C-124.87755299 186.8283863 -126.56134453 188.20817408 -128.6875 189.6875 C-129.89611348 190.57123158 -131.10443943 191.4553565 -132.3125 192.33984375 C-132.93125 192.78440918 -133.55 193.22897461 -134.1875 193.68701172 C-136.89854963 195.65091594 -139.54064712 197.70071467 -142.1875 199.75 C-143.25644358 200.57170154 -144.32545677 201.39331253 -145.39453125 202.21484375 C-148.12866589 204.32238967 -150.85278687 206.44248536 -153.57421875 208.56640625 C-154.76591675 209.49598145 -154.76591675 209.49598145 -155.98168945 210.44433594 C-157.53721777 211.65854614 -159.09179664 212.873974 -160.64526367 214.09082031 C-173.34016221 224 -173.34016221 224 -176 224 C-194.76339943 184.75229764 -197.26401275 141.15259221 -183 100 C-180.96391022 94.52126372 -178.56860217 89.24668126 -176 84 C-175.70399902 83.37963867 -175.40799805 82.75927734 -175.10302734 82.12011719 C-162.61174476 56.16578287 -142.00234954 35.46214348 -118 20 C-117.41734375 19.62456055 -116.8346875 19.24912109 -116.234375 18.86230469 C-100.25654241 8.75483232 -82.42375785 2.790146 -64 -1 C-62.25009766 -1.36931641 -62.25009766 -1.36931641 -60.46484375 -1.74609375 C-40.91757334 -5.06112791 -19.31625725 -4.44716007 0 0 Z " fill="#E54334" transform="translate(294,102)"/>
<path d="M0 0 C48.84 0 97.68 0 148 0 C158.14793759 35.51778155 149.66012861 80.36510393 132.24072266 112.48608398 C124.9582107 125.39350849 115.63537407 136.70770252 105 147 C102.08383413 145.64255131 99.65337937 144.08255825 97.12890625 142.09375 C96.39631592 141.51979492 95.66372559 140.94583984 94.90893555 140.35449219 C94.13461182 139.74250977 93.36028809 139.13052734 92.5625 138.5 C90.93511268 137.22368179 89.30750727 135.94764162 87.6796875 134.671875 C86.88143555 134.04474609 86.08318359 133.41761719 85.26074219 132.77148438 C82.25034364 130.41258029 79.22201043 128.07775277 76.1875 125.75 C75.17171875 124.96882813 74.1559375 124.18765625 73.109375 123.3828125 C70.89416158 121.68522432 68.67562043 119.99267399 66.453125 118.3046875 C65.8650708 117.85641602 65.2770166 117.40814453 64.67114258 116.94628906 C63.04149215 115.70425722 61.40949665 114.46530401 59.77734375 113.2265625 C57.33909509 111.27184839 55.15219344 109.26057728 53 107 C53.71285156 106.443125 54.42570312 105.88625 55.16015625 105.3125 C71.02425509 92.67246432 77.51184723 80.4644583 84 61 C56.28 61 28.56 61 0 61 C0 40.87 0 20.74 0 0 Z " fill="#417FEE" transform="translate(259,228)"/>
<path d="M0 0 C5.00365792 1.54989022 8.38419312 4.55725108 12.3125 7.875 C17.77148703 12.40319201 23.29631794 16.78438853 29 21 C30.97697483 22.479776 32.95153744 23.96271061 34.92529297 25.44677734 C36.37036382 26.52862493 37.82029777 27.60399422 39.27392578 28.67431641 C41.55570701 30.363477 43.81044179 32.08399037 46.0625 33.8125 C46.77212891 34.32748047 47.48175781 34.84246094 48.21289062 35.37304688 C50.06361096 36.81909617 51.5927436 38.11953819 53 40 C53.05859375 43.19921875 53.05859375 43.19921875 52 47 C50.36575544 54.66174972 49.64698861 61.98050819 49.6875 69.8125 C49.68878906 70.85768799 49.69007813 71.90287598 49.69140625 72.97973633 C49.77908356 80.05693932 50.48368105 86.44688163 52.34375 93.29296875 C53.52445559 98.16337932 53.52445559 98.16337932 53 101 C51.12244701 102.8283863 49.43865547 104.20817408 47.3125 105.6875 C46.10388652 106.57123158 44.89556057 107.4553565 43.6875 108.33984375 C43.06875 108.78440918 42.45 109.22897461 41.8125 109.68701172 C39.10145037 111.65091594 36.45935288 113.70071467 33.8125 115.75 C32.74355642 116.57170154 31.67454323 117.39331253 30.60546875 118.21484375 C27.87133411 120.32238967 25.14721313 122.44248536 22.42578125 124.56640625 C21.23408325 125.49598145 21.23408325 125.49598145 20.01831055 126.44433594 C18.46278223 127.65854614 16.90820336 128.873974 15.35473633 130.09082031 C2.65983779 140 2.65983779 140 0 140 C-18.704694 100.87509272 -21.42254106 57.02268117 -7 16 C-4.89295039 10.5616212 -2.51489998 5.26045647 0 0 Z " fill="#F5B604" transform="translate(118,186)"/>
</svg>
